<svg width="56" height="56" viewBox="0 0 56 56" fill="none" xmlns="http://www.w3.org/2000/svg">
<path d="M30.9157 39.9996C31.2704 40.0074 31.6187 39.9046 31.9123 39.7052C32.2058 39.5059 32.4299 39.22 32.5535 38.8874C32.677 38.5548 32.6939 38.192 32.6018 37.8494C32.5096 37.5068 32.313 37.2015 32.0392 36.9758L21.5941 28.0277L32.0392 19.0827C32.2286 18.9435 32.3872 18.7668 32.5051 18.5635C32.6229 18.3602 32.6976 18.1346 32.7243 17.9012C32.751 17.6677 32.7292 17.4312 32.6603 17.2065C32.5914 16.9819 32.4768 16.7738 32.3238 16.5954C32.1707 16.4171 31.9825 16.2724 31.7709 16.1702C31.5593 16.0679 31.3289 16.0105 31.094 16.0014C30.8592 15.9924 30.625 16.0318 30.4062 16.1174C30.1873 16.203 29.9885 16.3329 29.8222 16.4989L17.8635 26.7308C17.6757 26.8911 17.5249 27.09 17.4215 27.3142C17.3181 27.5384 17.2645 27.7824 17.2645 28.0292C17.2645 28.2761 17.3181 28.5201 17.4215 28.7443C17.5249 28.9685 17.6757 29.1676 17.8635 29.3279L29.8222 39.5696C30.1243 39.8379 30.5118 39.9905 30.9157 40L30.9157 39.9996Z" fill="white"/>
</svg>
