<svg width="120" height="54" viewBox="0 0 120 54" fill="none" xmlns="http://www.w3.org/2000/svg">
<g clip-path="url(#clip0_0_934)">
<path d="M119.902 6.16628C120.035 5.82435 120.028 5.4431 119.883 5.10639C119.737 4.76968 119.465 4.50511 119.126 4.37086C118.787 4.23662 118.409 4.24371 118.076 4.39056C117.742 4.53742 117.48 4.81203 117.347 5.15396L112.818 16.7726C109.463 15.9049 105.971 17.025 103.485 19.8496C102.061 21.4743 100.679 23.8989 100.679 26.1882L100.633 26.2405C100.405 26.5728 98.346 29.456 96.5313 28.299C96.0067 27.9636 96.3605 26.6898 96.7692 25.419C96.8302 25.222 96.8912 25.0374 96.943 24.859C96.9674 24.7759 96.9918 24.6928 97.0162 24.6036C97.1068 24.2521 97.0568 23.8787 96.8771 23.564C96.6974 23.2493 96.4023 23.0185 96.0554 22.9212C95.7086 22.8239 95.3378 22.868 95.0229 23.044C94.708 23.22 94.4742 23.5138 94.372 23.862C93.826 25.8497 92.112 28.7083 89.6386 28.4221C89.3599 28.4052 89.0899 28.3184 88.8529 28.1695C88.6159 28.0207 88.4194 27.8146 88.2814 27.5698C87.8117 26.7698 87.7873 25.4713 88.2204 24.4159C89.5379 21.2127 92.7738 19.7358 95.9152 20.905C96.0844 20.9679 96.2643 20.9965 96.4444 20.9892C96.6246 20.9819 96.8016 20.9389 96.9653 20.8626C97.129 20.7863 97.2762 20.6782 97.3985 20.5446C97.5208 20.4109 97.6158 20.2542 97.678 20.0835C97.7403 19.9128 97.7686 19.7313 97.7614 19.5496C97.7542 19.3678 97.7116 19.1892 97.636 19.0241C97.5604 18.8589 97.4532 18.7104 97.3207 18.587C97.1882 18.4637 97.0329 18.3678 96.8637 18.305C92.2889 16.6065 87.5891 18.7296 85.686 23.3543C85.1128 24.7538 85.0152 26.3054 85.4084 27.7667C85.3885 27.7747 85.3692 27.7839 85.3505 27.7944C84.6909 28.1784 83.958 28.4165 83.2003 28.4929C82.1268 28.5975 80.8824 28.1852 80.5835 27.0467C80.2206 25.6559 80.4981 24.022 80.8489 22.6528C81.1721 21.3974 83.2217 15.8372 83.3376 15.8495C85.7393 16.1141 88.1668 15.7041 90.3523 14.6649C92.2859 13.7572 95.3083 11.2525 96.0463 8.46787C96.2281 7.84949 96.2676 7.19742 96.1619 6.56131C96.0562 5.92519 95.8081 5.32179 95.4364 4.79703C93.9572 2.70468 90.8616 2.7816 88.6108 3.73855C84.8869 5.32011 82.9258 8.96942 81.5503 12.6618C80.101 12.211 78.7399 11.5104 77.5276 10.591C77.3826 10.4829 77.2179 10.4047 77.043 10.3608C76.868 10.3169 76.6862 10.3082 76.5079 10.3352C76.3296 10.3622 76.1584 10.4244 76.0039 10.5182C75.8495 10.6119 75.7148 10.7355 75.6077 10.8818C75.5005 11.028 75.423 11.1942 75.3795 11.3707C75.336 11.5472 75.3274 11.7306 75.3541 11.9105C75.3809 12.0903 75.4425 12.2631 75.5355 12.4189C75.6284 12.5748 75.7509 12.7106 75.8959 12.8187C77.3304 13.9027 78.9358 14.7349 80.6445 15.2803C80.551 15.5695 80.4595 15.8557 80.37 16.1388L80.3182 16.2988C80.1443 16.8311 79.3178 18.7758 78.409 20.9573C77.9283 22.1721 77.3721 23.3549 76.7437 24.499C75.6763 26.2651 73.7274 28.2898 72.2269 28.5636C72.011 28.6122 71.7868 28.6097 71.572 28.5564C71.3572 28.503 71.1575 28.4002 70.9887 28.2559C70.5403 27.9052 71.0801 26.179 71.3394 25.3482C71.4156 25.102 71.4888 24.8713 71.5498 24.6559C71.5484 24.6405 71.5484 24.6251 71.5498 24.6097C71.5512 24.6005 71.5512 24.5912 71.5498 24.582C71.6404 24.2305 71.5904 23.8572 71.4107 23.5425C71.231 23.2278 70.9359 22.9969 70.5891 22.8997C70.2422 22.8024 69.8714 22.8465 69.5565 23.0225C69.2416 23.1985 69.0078 23.4922 68.9056 23.8405C68.3536 25.8282 66.6426 28.6713 64.1752 28.3883C63.8966 28.3713 63.6265 28.2845 63.3895 28.1357C63.1525 27.9869 62.9561 27.7807 62.818 27.5359C62.3484 26.7359 62.324 25.4374 62.7571 24.382C64.1143 21.0835 67.0269 19.705 70.1469 20.8712C70.4886 20.9981 70.8664 20.9828 71.197 20.8288C71.5275 20.6747 71.7839 20.3944 71.9097 20.0496C72.0355 19.7048 72.0204 19.3238 71.8676 18.9902C71.7149 18.6567 71.4371 18.398 71.0954 18.2711C66.6029 16.6003 62.1318 18.6773 60.2226 23.3205C59.4571 25.1851 59.5455 27.3913 60.4513 28.9421C60.8074 29.5555 61.3028 30.0747 61.8966 30.4572C62.4905 30.8397 63.1659 31.0745 63.8672 31.1422C64.7105 31.2319 65.563 31.1389 66.3678 30.8693C67.1725 30.5997 67.9109 30.1598 68.5335 29.579C68.7287 29.9061 68.9832 30.1932 69.2838 30.4252C70.0247 31.0233 70.9455 31.3489 71.8945 31.3483C72.1655 31.3478 72.436 31.323 72.7027 31.2745C74.8894 30.8714 76.762 29.0006 77.9057 27.5821C78.0796 28.509 78.5589 29.3494 79.266 29.9667C80.2481 30.8307 81.5166 31.2899 82.8191 31.2529C84.1973 31.2356 85.5476 30.8582 86.7381 30.1575C86.7735 30.144 86.8081 30.1286 86.8419 30.1114C87.5423 30.7151 88.4081 31.0896 89.3244 31.1852C90.1727 31.2753 91.0302 31.1804 91.839 30.907C92.6478 30.6336 93.3889 30.1881 94.0121 29.6006C94.2752 30.0257 94.6322 30.3838 95.0551 30.6468C95.7757 31.1043 96.6101 31.3465 97.4615 31.3452C98.7882 31.3452 100.292 30.7637 101.75 29.2344C102.176 29.7384 102.694 30.1561 103.275 30.4652C103.972 30.8434 104.752 31.0411 105.544 31.0406C106.199 31.0348 106.849 30.9119 107.462 30.6775C108.41 30.3084 109.279 29.7589 110.021 29.059C110.17 29.4179 110.366 29.7552 110.603 30.0621C110.931 30.4724 111.341 30.8081 111.806 31.0472C112.271 31.2864 112.781 31.4236 113.302 31.4499C113.446 31.4499 113.586 31.4652 113.723 31.4652C117.365 31.4652 119.475 28.0283 119.567 27.8744C119.74 27.5617 119.786 27.1935 119.696 26.8471C119.606 26.5006 119.386 26.203 119.083 26.0166C118.78 25.8302 118.417 25.7696 118.07 25.8475C117.724 25.9254 117.421 26.1357 117.225 26.4344C117.225 26.4559 115.7 28.8467 113.498 28.6867C113.357 28.6862 113.218 28.6535 113.091 28.5912C112.964 28.5289 112.853 28.4385 112.766 28.3267C111.546 26.8036 112.68 24.7697 113.275 23.2374L115.511 17.4711C116.324 15.3562 117.145 13.2423 117.975 11.1295C118.536 9.68327 119.098 8.23504 119.661 6.78476L119.902 6.16628ZM89.6599 6.29859C90.9348 5.75704 92.6457 5.64935 93.1886 6.41552C93.3252 6.60824 93.414 6.83124 93.4474 7.06576C93.4809 7.30028 93.458 7.53948 93.3808 7.76324C92.9233 9.49865 90.6145 11.5018 89.1597 12.1726L89.0774 12.2156C87.5815 12.9112 85.94 13.228 84.2952 13.1387C85.4633 10.1417 87.0187 7.42169 89.6599 6.29859ZM109.691 24.8559C109.164 26.2128 107.801 27.5975 106.523 28.0744C106.214 28.2105 105.878 28.2756 105.541 28.2649C105.204 28.2543 104.874 28.1682 104.574 28.0129C103.714 27.5513 103.525 26.9975 103.458 26.6221C103.198 25.1667 104.354 23.0466 105.541 21.6989C106.947 20.0989 108.722 19.2588 110.564 19.2588C110.986 19.2595 111.407 19.3028 111.82 19.3881C110.631 22.4651 109.716 24.8282 109.691 24.8559V24.8559Z" fill="#26C6D0"/>
<path d="M91.6669 35.6192C87.4825 40.1824 81.1601 41.6624 72.8767 40.0162C64.7519 38.4008 58.1123 34.4469 57.3834 34.0038C56.3525 33.3884 55.4589 32.773 54.6171 32.2007C53.9667 29.4736 52.94 26.8521 51.5673 24.4129C51.2623 23.8652 50.9573 23.3144 50.6523 22.7636C48.3436 18.665 46.1629 14.7942 47.8891 10.0464C49.6062 5.82173 53.1532 2.96936 56.932 2.77551C57.2188 2.76142 57.5063 2.76862 57.792 2.79705C58.5482 2.87286 59.288 3.06698 59.9849 3.37245C59.4649 3.68895 58.9666 4.04052 58.4935 4.42477C55.648 6.74174 54.3792 9.63103 55.2332 12.5388C55.421 13.2282 55.7675 13.8631 56.2445 14.3919C56.7215 14.9207 57.3154 15.3285 57.9781 15.5819C58.8339 15.8765 59.7446 15.9725 60.6423 15.8627C61.54 15.753 62.4015 15.4403 63.1629 14.9481C65.1941 13.6742 66.4354 11.4188 66.3469 8.53562C66.3075 7.04879 65.8872 5.59759 65.127 4.32324C68.2449 3.77123 71.4559 4.35349 74.1881 5.96634C74.3445 6.05706 74.5171 6.11581 74.696 6.13923C74.8749 6.16266 75.0566 6.1503 75.2308 6.10287C75.405 6.05544 75.5682 5.97386 75.7111 5.8628C75.854 5.75173 75.9739 5.61335 76.0638 5.45556C76.1537 5.29777 76.2119 5.12366 76.2352 4.94317C76.2584 4.76267 76.2461 4.57933 76.1991 4.40361C76.1521 4.22789 76.0713 4.06323 75.9612 3.91903C75.8511 3.77484 75.7139 3.65394 75.5575 3.56322C73.6874 2.46032 71.6147 1.75249 69.4651 1.48273C67.3155 1.21296 65.134 1.38689 63.0531 1.99396C62.9585 1.92319 62.864 1.85242 62.7633 1.78472C61.3614 0.80482 59.7338 0.204121 58.036 0.0400719C57.6174 -0.000708982 57.1965 -0.0109847 56.7764 0.00930956C51.9333 0.258545 47.4378 3.79707 45.3242 9.02178L45.3059 9.06487C43.1222 15.0311 45.8457 19.8681 48.2521 24.1421C48.557 24.6805 48.862 25.2159 49.1487 25.7513C49.871 27.0686 50.5038 28.4338 51.0427 29.8376C48.948 28.5462 46.6176 27.6924 44.1897 27.3268C39.682 26.5852 35.8269 27.4344 32.7344 29.853C28.9952 32.7761 27.3452 37.3793 27.0708 40.4347C26.7658 43.9917 27.8027 47.2656 30.0352 49.6656C32.2677 52.0657 35.4548 53.358 39.0445 53.358H39.5447C46.3977 53.1303 51.4026 49.3426 54.0194 42.4132C54.8069 40.325 55.1689 38.098 55.0838 35.8654C55.3613 36.0438 55.651 36.2223 55.9499 36.4069C56.7246 36.8777 63.7454 41.0593 72.3338 42.7671C81.4834 44.5855 88.8641 42.7671 93.6829 37.5362C93.9304 37.2665 94.0616 36.9086 94.0476 36.5413C94.0335 36.174 93.8755 35.8274 93.6081 35.5777C93.3408 35.328 92.9861 35.1956 92.6221 35.2098C92.258 35.2239 91.9144 35.3834 91.6669 35.6531V35.6192ZM62.4217 5.18787C63.1777 6.16731 63.5973 7.36827 63.6173 8.60947C63.6752 10.4957 62.9189 11.8403 61.7294 12.588C61.3253 12.8559 60.8675 13.0304 60.3888 13.099C59.9101 13.1677 59.4222 13.1287 58.9602 12.9849C58.691 12.8866 58.45 12.7229 58.2584 12.5082C58.0669 12.2935 57.9308 12.0345 57.8622 11.7541C57.0814 9.09563 59.4847 7.1756 60.2136 6.58174C60.8905 6.02792 61.6321 5.55981 62.4217 5.18787V5.18787ZM51.4636 41.3916C49.2433 47.281 45.2052 50.3641 39.4685 50.558C36.4704 50.6595 33.8354 49.6564 32.042 47.7425C30.3585 45.9425 29.5686 43.4348 29.8156 40.6655C30.0413 38.167 31.3833 34.4038 34.427 32.0253C36.3027 30.5576 38.5657 29.8222 41.1825 29.8222C42.0459 29.826 42.9077 29.8991 43.7596 30.0406C47.4683 30.656 49.4629 31.9945 52.162 33.853C52.6102 36.3833 52.3688 38.989 51.4636 41.3916V41.3916Z" fill="#26C6D0"/>
<path d="M4.11417 5.40943C5.15728 5.39395 6.19244 5.5946 7.1556 5.99896C8.11876 6.40331 8.98942 7.00277 9.71372 7.76024C10.4574 8.49531 11.0511 9.37028 11.4613 10.3357C11.8583 11.3115 12.0565 12.3579 12.0438 13.4127C12.0438 15.5344 11.2084 17.5693 9.72127 19.0696C8.23418 20.5699 6.21724 21.4128 4.11417 21.4128H1.0643C0.922871 21.4138 0.782745 21.3855 0.652578 21.3297C0.527802 21.275 0.413273 21.199 0.314029 21.1051C0.218167 21.0083 0.140647 20.8947 0.0852893 20.7697C0.0299676 20.6384 0.00195363 20.497 0.00295565 20.3543V6.47099C0.00195363 6.32831 0.0299676 6.18692 0.0852893 6.0556C0.140647 5.93068 0.218167 5.81701 0.314029 5.72021C0.412475 5.62529 0.527193 5.54918 0.652578 5.49559C0.78255 5.4388 0.922667 5.40948 1.0643 5.40943H4.11417ZM4.11417 19.2897C4.87961 19.3019 5.6394 19.1556 6.34654 18.8597C7.05369 18.5639 7.69315 18.1248 8.22538 17.5697C8.78202 17.0344 9.22214 16.3881 9.51776 15.6719C9.81337 14.9557 9.958 14.1852 9.94246 13.4096C9.93365 11.8528 9.31677 10.3624 8.22566 9.26154C7.13455 8.16072 5.65721 7.53835 4.11417 7.52947H2.1104V19.2897H4.11417Z" fill="#26C6D0"/>
<path d="M15.6978 20.3604V16.0526C15.6966 15.9153 15.7224 15.779 15.7736 15.6518C15.8249 15.5245 15.9006 15.4088 15.9965 15.3112C16.0923 15.2137 16.2064 15.1362 16.332 15.0834C16.4577 15.0306 16.5925 15.0034 16.7287 15.0034C16.8645 15.0017 16.9993 15.0281 17.1247 15.081C17.2501 15.1339 17.3634 15.2122 17.4576 15.3111C17.652 15.5094 17.7615 15.7768 17.7626 16.0557V20.3635C17.7622 20.6425 17.6526 20.9101 17.4576 21.1081C17.3129 21.2541 17.1283 21.3534 16.9275 21.3932C16.7267 21.433 16.5186 21.4117 16.3299 21.3318C16.1412 21.2519 15.9803 21.1172 15.8677 20.9447C15.7551 20.7723 15.696 20.5699 15.6978 20.3635V20.3604Z" fill="#26C6D0"/>
<path d="M36.3912 20.3604V16.0526C36.3899 15.9153 36.4157 15.779 36.467 15.6518C36.5182 15.5245 36.594 15.4088 36.6898 15.3112C36.7857 15.2137 36.8997 15.1362 37.0254 15.0834C37.1511 15.0306 37.2859 15.0034 37.422 15.0034C37.5579 15.0017 37.6927 15.0281 37.8181 15.081C37.9434 15.1339 38.0567 15.2122 38.1509 15.3111C38.3453 15.5094 38.4548 15.7768 38.4559 16.0557V20.3635C38.4555 20.6425 38.3459 20.9101 38.1509 21.1081C38.0062 21.2541 37.8217 21.3534 37.6209 21.3932C37.42 21.433 37.212 21.4117 37.0233 21.3318C36.8345 21.2519 36.6736 21.1172 36.561 20.9447C36.4485 20.7723 36.3893 20.5699 36.3912 20.3635V20.3604Z" fill="#26C6D0"/>
<path d="M30.5566 20.1818C29.8648 20.7421 29.0501 21.1271 28.1806 21.3045C27.3111 21.4819 26.4121 21.4466 25.5589 21.2015C24.7057 20.9564 23.9231 20.5087 23.2766 19.8959C22.6301 19.283 22.1386 18.5228 21.8431 17.6789C21.5476 16.8351 21.4567 15.9321 21.5782 15.0455C21.6996 14.1589 22.0298 13.3146 22.541 12.5832C23.0523 11.8518 23.7298 11.2546 24.5168 10.8416C25.3038 10.4286 26.1774 10.2118 27.0645 10.2093C28.5366 10.2093 29.9485 10.7993 30.9894 11.8495C32.0304 12.8998 32.6152 14.3242 32.6152 15.8094V21.3695C32.618 21.8331 32.5438 22.2938 32.3956 22.7326C32.253 23.1526 32.0473 23.548 31.7857 23.9049C31.5244 24.2664 31.2167 24.5913 30.8707 24.8711C30.5217 25.1567 30.141 25.4004 29.7362 25.5973C29.3283 25.7931 28.9009 25.9447 28.4613 26.0496C28.0269 26.1559 27.5816 26.2096 27.1346 26.2096C26.6096 26.2104 26.0867 26.1421 25.5792 26.0065C25.0713 25.8674 24.5841 25.6604 24.1305 25.3911C23.6691 25.1212 23.2472 24.7877 22.877 24.4003C22.4955 24.0078 22.1701 23.5635 21.9102 23.0803C21.8 22.9152 21.7445 22.7192 21.7516 22.5203C21.7487 22.3817 21.7742 22.2439 21.8267 22.1157C21.8792 21.9876 21.9575 21.8718 22.0566 21.7757C22.153 21.6764 22.2684 21.5979 22.3958 21.545C22.5232 21.4921 22.66 21.4659 22.7977 21.468C22.9721 21.4617 23.144 21.5112 23.2887 21.6095C23.4942 21.7877 23.673 21.995 23.8194 22.2249C24.0016 22.4853 24.2056 22.7292 24.4294 22.9542C25.151 23.6797 26.1273 24.0886 27.1461 24.092C28.1649 24.0955 29.1439 23.6932 29.8703 22.9726C30.2817 22.5271 30.5246 21.9498 30.5566 21.3418V20.1818ZM27.0645 12.3017C26.5936 12.297 26.127 12.3924 25.6951 12.5817C25.2837 12.7596 24.9099 13.0155 24.5941 13.3355C24.2823 13.6579 24.032 14.0355 23.856 14.4494C23.6768 14.88 23.5846 15.3424 23.5846 15.8094C23.5846 16.2764 23.6768 16.7388 23.856 17.1694C24.0313 17.5847 24.2816 17.9635 24.5941 18.2864C24.9099 18.6064 25.2837 18.8623 25.6951 19.0402C26.1262 19.2251 26.5899 19.3203 27.0584 19.3203C27.5268 19.3203 27.9905 19.2251 28.4217 19.0402C28.8349 18.8613 29.2098 18.6032 29.5257 18.2802C29.841 17.9595 30.0935 17.5816 30.2699 17.1664C30.451 16.7378 30.5444 16.2768 30.5444 15.8109C30.5444 15.3451 30.451 14.8841 30.2699 14.4555C30.0935 14.0403 29.841 13.6624 29.5257 13.3417C29.2098 13.0187 28.8349 12.7606 28.4217 12.5817C27.9937 12.3936 27.5313 12.2982 27.0645 12.3017V12.3017Z" fill="#26C6D0"/>
<path d="M39.1573 11.9173C39.1577 12.2043 39.0879 12.487 38.9542 12.7403C38.8204 12.9936 38.6268 13.2097 38.3904 13.3694C38.1541 13.5292 37.8823 13.6276 37.5993 13.656C37.3162 13.6845 37.0305 13.642 36.7676 13.5324C36.5047 13.4228 36.2726 13.2494 36.092 13.0277C35.9114 12.8059 35.7878 12.5427 35.7321 12.2612C35.6765 11.9797 35.6905 11.6888 35.773 11.4141C35.8555 11.1394 36.0039 10.8895 36.205 10.6865C36.4467 10.4426 36.7546 10.2765 37.0898 10.209C37.425 10.1416 37.7725 10.1759 38.0884 10.3076C38.4043 10.4393 38.6745 10.6625 38.8647 10.949C39.055 11.2355 39.1568 11.5725 39.1573 11.9173V11.9173Z" fill="#EE6C8A"/>
<path d="M18.4639 11.9173C18.4643 12.2043 18.3946 12.487 18.2608 12.7403C18.1271 12.9936 17.9334 13.2097 17.6971 13.3694C17.4607 13.5292 17.189 13.6276 16.9059 13.656C16.6228 13.6845 16.3371 13.642 16.0742 13.5324C15.8113 13.4228 15.5793 13.2494 15.3986 13.0277C15.218 12.8059 15.0944 12.5427 15.0388 12.2612C14.9831 11.9797 14.9972 11.6888 15.0797 11.4141C15.1622 11.1394 15.3105 10.8895 15.5116 10.6865C15.7533 10.4426 16.0612 10.2765 16.3964 10.209C16.7316 10.1416 17.0792 10.1759 17.3951 10.3076C17.711 10.4393 17.9811 10.6625 18.1713 10.949C18.3616 11.2355 18.4634 11.5725 18.4639 11.9173V11.9173Z" fill="#26C6D0"/>
</g>
<defs>
<clipPath id="clip0_0_934">
<rect width="120" height="53.3333" fill="white"/>
</clipPath>
</defs>
</svg>
