<svg width="90" height="90" viewBox="0 0 90 90" fill="none" xmlns="http://www.w3.org/2000/svg">
<path d="M71.1972 36.88C71.0159 34.9204 71.1546 29.5934 76.2577 22.1858C76.6437 21.6268 76.5737 20.873 76.0943 20.3937C74.0138 18.3132 72.7256 17.0003 71.8221 16.0816C70.6341 14.8702 70.0917 14.3183 69.2979 13.5986C68.7679 13.1221 67.9659 13.1138 67.4303 13.5808C58.5355 21.3207 48.656 37.314 50.0856 56.9081C50.9233 68.4135 59.3155 76.7645 70.0396 76.7645C81.045 76.7645 89.9989 67.812 89.9989 56.8064C89.9989 46.1895 81.6659 37.4829 71.1972 36.88ZM70.0396 73.952C60.8302 73.952 53.6191 66.6983 52.8899 56.7049C52.8899 56.7049 52.8899 56.7049 52.8899 56.7035C51.2817 34.6663 64.3815 20.3525 68.3394 16.5622C68.7253 16.9426 69.1661 17.3902 69.8157 18.0522C70.5984 18.8487 71.6697 19.9391 73.2901 21.5651C67.0952 31.1095 68.2639 37.91 68.7761 38.885C69.0192 39.3478 69.5177 39.6596 70.0396 39.6596C79.4946 39.6596 87.1864 47.3514 87.1864 56.8064C87.1864 66.2602 79.4946 73.952 70.0396 73.952Z" fill="white"/>
<path d="M21.2534 36.8802C21.0708 34.926 21.2053 29.6031 26.314 22.186C26.6986 21.627 26.6298 20.8731 26.1506 20.3938C24.0741 18.3174 22.7874 17.0059 21.8851 16.0872C20.6932 14.8732 20.1492 14.3197 19.3556 13.5987C18.8254 13.1223 18.0234 13.1154 17.4879 13.5796C8.59311 21.3194 -1.28777 37.31 0.139012 56.9082V56.9097C0.979527 68.4136 9.37301 76.7646 20.0971 76.7646C31.1027 76.7646 40.0565 67.8122 40.0565 56.8066C40.0565 46.1884 31.7234 37.4803 21.2534 36.8802ZM20.0971 73.9521C10.8892 73.9521 3.6739 66.6984 2.94336 56.7036V56.705C1.33939 34.6624 14.4392 20.3512 18.3969 16.5624C18.7842 16.9428 19.2265 17.3932 19.8774 18.0565C20.6587 18.853 21.7286 19.942 23.3464 21.5652C17.1514 31.111 18.3201 37.9101 18.8323 38.8838C19.0754 39.3466 19.5752 39.6597 20.0971 39.6597C29.5523 39.6597 37.244 47.3515 37.244 56.8066C37.244 66.2604 29.5523 73.9521 20.0971 73.9521Z" fill="white"/>
</svg>
